<svg width="100" height="100" viewBox="0 0 100 100" fill="none" xmlns="http://www.w3.org/2000/svg">
<path d="M50 0L56.2574 10.4925L65.4509 2.44717L68.1596 14.3597L79.3893 9.54915L78.2843 21.7157L90.4509 20.6107L85.6403 31.8404L97.5528 34.5491L89.5075 43.7426L100 50L89.5075 56.2574L97.5528 65.4509L85.6403 68.1596L90.4509 79.3893L78.2843 78.2843L79.3893 90.4509L68.1596 85.6403L65.4509 97.5528L56.2574 89.5075L50 100L43.7426 89.5075L34.5491 97.5528L31.8404 85.6403L20.6107 90.4509L21.7157 78.2843L9.54915 79.3893L14.3597 68.1596L2.44717 65.4509L10.4925 56.2574L0 50L10.4925 43.7426L2.44717 34.5491L14.3597 31.8404L9.54915 20.6107L21.7157 21.7157L20.6107 9.54915L31.8404 14.3597L34.5491 2.44717L43.7426 10.4925L50 0Z" fill="#87CED0" fill-opacity="0.929412"/>
<path d="M49.9479 6.63718L55.3627 15.7252L63.3182 8.7568L65.6622 19.0749L75.3797 14.9082L74.4235 25.4463L84.9518 24.4892L80.789 34.2157L91.0975 36.5619L84.1355 44.5249L93.2151 49.9447L84.1355 55.3645L91.0975 63.3275L80.789 65.6737L84.9518 75.4002L74.4235 74.4431L75.3797 84.9812L65.6622 80.8145L63.3182 91.1326L55.3627 84.1642L49.9479 93.2522L44.5331 84.1642L36.5776 91.1326L34.2336 80.8145L24.5161 84.9812L25.4722 74.4431L14.944 75.4002L19.1068 65.6737L8.79831 63.3275L15.7603 55.3645L6.68066 49.9447L15.7603 44.5249L8.79831 36.5619L19.1068 34.2157L14.944 24.4892L25.4722 25.4463L24.5161 14.9082L34.2336 19.0749L36.5776 8.7568L44.5331 15.7252L49.9479 6.63718Z" fill="white"/>
<g clip-path="url(#clip0_126_196)">
<path d="M26.2857 47.0287C26.9331 46.9015 27.5524 46.6206 28.0265 46.7842C29.593 47.3249 31.1027 48.0377 32.6462 48.6527C32.8629 48.739 33.2598 48.7571 33.3817 48.6239C35.3678 46.4539 37.7246 46.4933 40.2448 47.3954C40.3102 47.4188 40.3942 47.3878 40.5137 47.3789C40.991 44.3901 42.7574 42.731 45.6542 42.1479C46.3823 42.0013 47.0067 41.393 47.7206 41.1027C49.0735 40.5526 50.2656 39.8636 51.3329 38.7746C52.2313 37.8581 53.5408 37.3614 54.713 36.6518C54.5646 36.2905 54.3178 35.8725 54.2207 35.4217C53.7944 33.4406 55.4749 31.7786 57.5228 32.2248C58.7377 32.4895 59.9029 32.9907 61.1096 33.308C61.4518 33.398 61.8991 33.2987 62.2329 33.1425C63.1634 32.707 64.0597 32.1961 65.1301 31.63C64.8338 31.1725 64.5147 30.5637 64.0886 30.0463C63.2324 29.0065 63.2292 28.5073 64.1915 27.5257C64.517 27.1937 64.8357 26.8546 65.1526 26.514C65.8034 25.8145 66.5376 25.6651 67.4648 25.9586C71.4447 27.2185 71.4501 27.2004 73.3612 30.9339C74.988 34.112 76.6138 37.2905 78.2429 40.4673C78.4237 40.8198 78.5952 41.1825 78.8189 41.5062C79.8752 43.0349 79.7705 43.4543 78.2037 44.339C77.1316 44.9443 76.0812 45.5956 75.0583 46.2837C73.3384 47.4409 71.5197 47.6033 69.574 46.8055C69.8097 48.9178 67.501 50.853 65.5668 50.3007C64.4179 49.9727 63.2805 49.6025 61.8727 49.1698C62.2486 49.7412 62.4769 50.1254 62.7409 50.4822C63.3957 51.3677 63.2897 52.0964 62.4007 52.6784C62.3681 52.6998 62.3344 52.7221 62.2981 52.7346C60.6696 53.2943 59.9792 54.1375 60.0593 56.1952C60.2002 59.8187 55.7979 62.5985 51.9386 61.6867C51.2565 61.5256 50.5936 61.2778 49.922 61.0694C48.8691 60.7426 47.8598 60.1292 46.7078 60.8782C46.4363 61.0548 45.8738 60.8579 45.4778 60.7277C44.6028 60.4402 43.7484 60.086 42.6702 59.6773C43.9453 62.5097 43.9415 62.5019 41.3428 63.8277C40.0706 64.4767 38.8432 65.2251 37.54 65.7985C36.9878 66.0415 36.2936 65.9614 35.6623 66.0025C35.5172 66.012 35.368 65.8942 35.2157 65.8715C32.6265 65.4854 30.7866 64.1999 30.1198 61.4814C30.0756 61.3013 29.9346 61.1454 29.8206 60.9468C26.6492 61.9559 23.8934 60.5372 21.1955 59.2753C19.2188 58.3507 18.2178 56.4665 18.3028 54.2341C18.3823 52.1437 19.4961 50.6133 21.3274 49.6508C22.9507 48.7976 24.57 47.9364 26.2857 47.0287ZM42.9532 57.9026C43.3482 57.6937 43.7432 57.4849 44.1629 57.2629C43.7401 56.5759 43.3814 55.9932 42.9609 55.2022C42.6198 54.5652 42.2787 53.9282 41.8745 53.0767C41.4459 52.2296 41.0459 51.3659 40.5832 50.5385C39.2633 48.1787 36.9978 47.3802 35.0671 48.7177C34.2477 49.2854 33.6594 50.1989 32.9583 50.9636C32.8292 50.7727 32.6198 50.463 32.348 50.0609C31.7578 50.6776 31.2351 51.2238 30.8467 51.6296C32.5657 54.9879 34.1986 58.1781 35.8801 61.5001C35.965 61.4897 36.0498 61.4792 36.3323 61.4032C36.8147 61.1282 37.297 60.8532 37.89 60.5038C37.8255 60.4066 37.761 60.3094 37.5856 60.0407C36.7367 58.3895 35.8129 56.7719 35.0718 55.0722C34.7246 54.276 34.5519 53.306 34.619 52.4425C34.7082 51.2947 35.4892 50.484 36.6164 50.2512C37.7491 50.0173 38.3724 50.7681 38.8551 51.7118C39.4656 52.9055 40.1246 54.0735 40.8086 55.4719C41.1782 56.2447 41.5125 57.039 41.9441 57.7741C42.0421 57.9409 42.4776 57.9026 42.9532 57.9026ZM47.1392 54.7618C47.1392 54.7618 47.1886 54.8294 47.1217 54.9329C47.0715 55.0891 47.0214 55.2453 46.837 55.5334C45.5538 56.6106 45.7666 57.8046 47.5087 58.855C49.627 59.6583 52.2186 58.9332 53.6792 57.1235C54.7684 55.7741 54.8645 54.3055 54.11 52.5233C52.3147 49.0159 50.5194 45.5085 48.6322 41.8215C48.0092 42.3131 47.3892 42.8025 46.5698 43.4492C43.7762 42.8472 41.0302 45.7559 41.7353 48.9337C42.104 50.5957 42.8655 52.0459 44.1582 53.3866C44.9453 54.284 45.8903 54.8047 47.1392 54.7618ZM66.309 27.2726C66.2158 27.2928 66.1227 27.3129 65.878 27.4311C65.5318 28.0171 64.4209 28.2035 65.0117 29.2799C65.7306 30.5895 66.4049 31.9245 66.9789 33.3111C66.8593 33.374 66.7397 33.437 66.4705 33.4315C64.7125 32.9071 63.1749 33.3654 62.2712 34.7972C61.2877 36.3553 61.3595 38.0121 62.07 39.8279C62.1618 40.0025 62.2537 40.1771 62.3739 40.551C62.5475 40.8316 62.721 41.1122 62.9054 41.5234C62.9905 41.6167 63.0757 41.71 63.2312 41.9769C63.635 42.411 64.0388 42.845 64.5274 43.4282C66.9497 45.4908 69.9992 44.9443 71.4256 42.1684C71.6732 42.2484 71.9208 42.3284 72.3683 42.3454C72.8406 42.0956 73.3128 41.8459 73.6683 41.6579C72.4726 39.3219 71.3293 37.0883 70.1326 34.636C68.8885 32.2254 67.6444 29.8148 66.309 27.2726ZM32.3628 63.3569C32.4472 63.3489 32.5316 63.3409 32.8197 63.2597C33.3856 62.9605 33.9515 62.6612 34.4212 62.4129C33.09 59.8123 31.8501 57.3898 30.5531 54.751C29.4051 52.5081 28.2571 50.2653 27.0917 47.9884C25.1083 49.0373 23.0805 49.9538 21.2216 51.1435C19.8152 52.0436 19.1736 53.5569 19.6335 55.289C20.0933 57.0206 21.1613 58.2494 22.9832 58.5554C24.4142 58.7958 25.6037 58.2501 26.4633 57.0993C27.2094 56.1005 27.2183 54.9564 26.7161 53.8267C26.3184 52.9324 25.5686 52.6789 24.811 53.1599C24.0422 53.6481 23.9571 54.2958 24.4007 55.0968C24.5586 55.382 24.7159 55.9567 24.5986 56.0537C24.304 56.2972 23.7065 56.5709 23.4913 56.4262C22.8519 55.9964 22.1574 55.4648 21.8219 54.7977C21.4137 53.9861 21.8109 53.104 22.5674 52.6319C23.6444 51.9597 24.8033 51.4234 26.1113 50.7317C27.1281 52.7182 28.1162 54.6486 29.1319 56.7802C30.1937 58.9283 31.2555 61.0764 32.3628 63.3569ZM58.0022 36.7214C57.6057 37.134 57.2092 37.5466 56.8374 37.9335C57.1586 38.4026 57.4611 38.7581 57.6698 39.1635C59.0386 41.8224 60.3788 44.4965 61.7587 47.1494C61.8632 47.3503 62.2023 47.425 62.6294 47.5017C63.0948 47.2556 63.5602 47.0095 63.9986 46.7777C63.4227 45.7683 62.9349 44.9131 62.3805 43.8445C61.1422 41.4414 59.904 39.0384 58.6301 36.5087C58.4722 36.5498 58.3142 36.591 58.0022 36.7214ZM56.0056 51.0008C56.488 50.7246 56.9704 50.4484 57.5618 50.0942C57.4937 49.998 57.4256 49.9017 57.2534 49.6311C56.2431 47.5292 55.1834 45.4497 54.2471 43.3143C53.8778 42.4723 53.6911 41.5004 54.3351 40.5818C54.5529 40.6598 54.7465 40.8033 54.9093 40.774C55.4419 40.678 56.1585 40.6828 56.4347 40.3389C56.7184 39.9855 56.7747 39.1488 56.5489 38.7433C56.3233 38.3379 55.6303 38.0086 55.1336 37.993C54.157 37.9622 53.4678 38.5947 53.1294 39.5216C53.0009 39.8736 53.0494 40.2938 53.0171 40.6829C52.9015 40.6493 52.7859 40.6157 52.6703 40.5821C52.4748 40.3055 52.2793 40.0288 52.0176 39.6586C51.431 40.2704 50.9079 40.8158 50.5194 41.221C52.2388 44.5801 53.8728 47.7724 55.5547 51.0951C55.6388 51.0848 55.7229 51.0745 56.0056 51.0008ZM55.3332 35.5651C55.9458 36.4433 56.7009 36.597 57.5209 35.9298C58.1363 35.4292 58.1938 34.6699 57.6804 34.1521C57.3146 33.7831 56.58 33.5009 56.1027 33.6064C55.2707 33.7901 55.0454 34.5529 55.3332 35.5651ZM69.303 46.848L69.298 46.7966C69.298 46.7966 69.2638 46.8286 69.303 46.848Z" fill="#EF05A0"/>
<path d="M50.8028 50.0253C51.1751 50.7136 51.5115 51.4253 51.9269 52.0855C52.8689 53.5823 52.9314 54.9966 51.6126 56.456C50.7436 56.8747 49.9512 57.4628 49.1803 56.4612C49.0632 54.9887 48.0515 55.1339 47.127 55.1271C47.1772 54.9709 47.2273 54.8147 47.3994 54.5662C48.5952 54.2387 49.6044 53.897 50.2287 52.7603C51.0303 51.1154 50.7682 50.4491 49.1869 49.7406C49.7497 49.7976 50.2763 49.9114 50.8028 50.0253Z" fill="#F412A8"/>
<path d="M71.9725 38.1604C72.2059 37.3435 72.4579 37.8672 72.757 38.3026C72.5491 38.294 72.3015 38.214 71.9725 38.1604Z" fill="#FDC7EB"/>
<path d="M62.6993 35.7179C62.8099 35.8305 62.9191 36.0187 63.001 36.2621C62.8818 36.1427 62.7899 35.9681 62.6993 35.7179Z" fill="#64264F"/>
<path d="M63.5283 37.4237C63.6209 37.4629 63.7189 37.5673 63.803 37.7203C63.704 37.6756 63.6188 37.5823 63.5283 37.4237Z" fill="#64264F"/>
<path d="M59.276 32.5377C59.1658 32.6111 59.0378 32.6212 58.847 32.6146C58.9423 32.5567 59.1002 32.5155 59.276 32.5377Z" fill="#FEDDF3"/>
<path d="M36.4842 57.3999C36.5316 57.3402 36.6006 57.3575 36.715 57.4102C36.6782 57.4449 36.5933 57.4553 36.4842 57.3999Z" fill="#FED0EE"/>
<path d="M38.4627 56.5066C38.3907 56.4836 38.374 56.4234 38.3409 56.2705C38.389 56.2751 38.4535 56.3722 38.4627 56.5066Z" fill="#FED0EE"/>
<path d="M32.9683 59.2564C33.0171 59.1968 33.0855 59.2154 33.1976 59.2723C33.1599 59.3065 33.0755 59.3145 32.9683 59.2564Z" fill="#FDC3E9"/>
<path d="M56.159 46.9955C56.2056 46.9385 56.2738 46.9562 56.3875 47.0066C56.3512 47.0401 56.2671 47.0504 56.159 46.9955Z" fill="#FED6F0"/>
<path d="M58.1356 46.0988C58.0631 46.0774 58.045 46.017 58.0064 45.8638C58.0539 45.8674 58.122 45.9636 58.1356 46.0988Z" fill="#FED6F0"/>
<path d="M66.9827 23.3041C66.9445 23.3615 66.8607 23.353 66.7173 23.3217C66.7509 23.2786 66.844 23.2584 66.9827 23.3041Z" fill="#FDC7EB"/>
<path d="M69.9118 42.804C69.8922 42.7943 69.9264 42.7622 69.9264 42.7622C69.9264 42.7622 69.9314 42.8137 69.9118 42.804Z" fill="#010001"/>
<path d="M49.2674 49.9577C48.0633 50.4998 47.1537 51.1353 47.8966 52.7335C47.7923 52.8057 47.688 52.8779 47.5837 52.9501C46.8269 52.458 46.0702 51.9659 45.2371 51.4295C44.9018 50.8086 44.6678 50.2185 44.3786 49.6579C43.677 48.2979 43.8616 46.6952 44.8387 45.9007C45.8692 45.0628 47.32 45.0904 48.4127 46.3233C49.3861 47.4216 50.0423 48.8124 50.861 50.1583C50.3568 50.1286 49.8303 50.0147 49.2674 49.9577Z" fill="#F309A4"/>
<path d="M66.8092 32.9494C66.9288 32.8865 67.0484 32.8235 67.3011 32.8134C68.0756 34.0615 68.717 35.2567 69.3778 36.5465C69.572 37.1092 69.747 37.5774 69.9433 38.1323C69.8873 39.1717 69.81 40.1242 69.6631 41.13C68.3007 42.4583 66.8363 42.3592 65.4786 40.8199C63.6449 38.275 63.3519 36.3829 64.3149 35.3522C65.2342 35.5517 66.0199 35.9649 66.6766 35.8126C67.9264 35.5227 67.9429 34.2443 66.8092 32.9494Z" fill="#F40DA6"/>
</g>
<defs>
<clipPath id="clip0_126_196">
<rect width="67.9678" height="34.6731" fill="white" transform="matrix(0.886639 -0.468867 0.453777 0.886528 11.9917 46.5688)"/>
</clipPath>
</defs>
</svg>
