<svg width="100" height="100" viewBox="0 0 100 100" fill="none" xmlns="http://www.w3.org/2000/svg">
<path d="M50 0L56.2574 10.4925L65.4509 2.44717L68.1596 14.3597L79.3893 9.54915L78.2843 21.7157L90.4509 20.6107L85.6403 31.8404L97.5528 34.5491L89.5075 43.7426L100 50L89.5075 56.2574L97.5528 65.4509L85.6403 68.1596L90.4509 79.3893L78.2843 78.2843L79.3893 90.4509L68.1596 85.6403L65.4509 97.5528L56.2574 89.5075L50 100L43.7426 89.5075L34.5491 97.5528L31.8404 85.6403L20.6107 90.4509L21.7157 78.2843L9.54915 79.3893L14.3597 68.1596L2.44717 65.4509L10.4925 56.2574L0 50L10.4925 43.7426L2.44717 34.5491L14.3597 31.8404L9.54915 20.6107L21.7157 21.7157L20.6107 9.54915L31.8404 14.3597L34.5491 2.44717L43.7426 10.4925L50 0Z" fill="#F9DD9A"/>
<path d="M49.9434 6.61057L55.3565 15.7032L63.3096 8.73125L65.6529 19.0545L75.3675 14.8857L74.4116 25.4291L84.9366 24.4716L80.7751 34.203L91.0804 36.5504L84.1206 44.5173L93.1974 49.9399L84.1206 55.3625L91.0804 63.3294L80.7751 65.6768L84.9366 75.4082L74.4116 74.4507L75.3675 84.994L65.6529 80.8253L63.3096 91.1485L55.3565 84.1766L49.9434 93.2692L44.5303 84.1766L36.5772 91.1485L34.2339 80.8253L24.5194 84.994L25.4753 74.4507L14.9502 75.4082L19.1118 65.6768L8.80645 63.3294L15.7663 55.3625L6.68945 49.9399L15.7663 44.5173L8.80645 36.5504L19.1118 34.203L14.9502 24.4716L25.4753 25.4291L24.5194 14.8857L34.2339 19.0545L36.5772 8.73125L44.5303 15.7032L49.9434 6.61057Z" fill="white"/>
<g clip-path="url(#clip0_126_188)">
<path d="M26.2757 47.0017C26.923 46.8751 27.5423 46.5947 28.0161 46.759C29.5815 47.302 31.09 48.0171 32.6323 48.6345C32.8487 48.7212 33.2456 48.7397 33.3675 48.6066C35.3551 46.437 37.7111 46.4792 40.2294 47.3851C40.2948 47.4086 40.3787 47.3777 40.4983 47.3689C40.9784 44.3781 42.7459 42.7197 45.6423 42.1396C46.3702 41.9937 46.9951 41.3856 47.709 41.0959C49.0619 40.547 50.2543 39.8588 51.3224 38.7701C52.2213 37.8539 53.5309 37.3584 54.7034 36.6496C54.5554 36.2877 54.3091 35.8691 54.2126 35.4178C53.7884 33.4345 55.4701 31.7732 57.5168 32.2221C58.731 32.4885 59.8952 32.9914 61.1011 33.3105C61.4432 33.401 61.8904 33.3021 62.2243 33.1461C63.1549 32.7113 64.0514 32.2011 65.122 31.6358C64.8262 31.1776 64.5078 30.5679 64.0825 30.0496C63.2276 29.0078 63.225 28.5082 64.1879 27.527C64.5136 27.1951 64.8325 26.8561 65.1497 26.5155C65.801 25.8162 66.5351 25.6676 67.4616 25.9624C71.4388 27.228 71.4442 27.2099 73.3509 30.9488C74.9738 34.1314 76.5958 37.3145 78.2211 40.4959C78.4014 40.8489 78.5725 41.2121 78.7958 41.5364C79.8502 43.0676 79.7451 43.4872 78.1779 44.3708C77.1056 44.9754 76.0549 45.6259 75.0317 46.3134C73.3112 47.4696 71.493 47.63 69.5488 46.8292C69.7823 48.9435 67.4724 50.8776 65.5394 50.3226C64.3913 49.993 63.2546 49.6212 61.8478 49.1864C62.223 49.7587 62.4508 50.1435 62.7143 50.501C63.3681 51.3879 63.2613 52.1172 62.372 52.6986C62.3394 52.7199 62.3058 52.7422 62.2694 52.7547C60.641 53.3129 59.9499 54.1561 60.0278 56.2156C60.165 59.8423 55.7615 62.6192 51.9044 61.7022C51.2228 61.5401 50.5603 61.2913 49.8892 61.0819C48.8371 60.7536 47.8287 60.1385 46.6764 60.8868C46.4047 61.0632 45.8427 60.8654 45.447 60.7347C44.5725 60.446 43.7189 60.0904 42.6415 59.6801C43.9132 62.5164 43.9094 62.5086 41.3103 63.8324C40.0379 64.4805 38.8101 65.228 37.5068 65.8004C36.9545 66.0429 36.2607 65.962 35.6295 66.0024C35.4845 66.0117 35.3355 65.8937 35.1832 65.8707C32.5954 65.4812 30.7575 64.1925 30.0936 61.471C30.0496 61.2907 29.9088 61.1345 29.7951 60.9356C26.6238 61.9417 23.8704 60.5186 21.1748 59.2525C19.1997 58.3248 18.201 56.4378 18.2882 54.2037C18.3699 52.1117 19.4849 50.5812 21.3164 49.6201C22.9401 48.7681 24.5597 47.9081 26.2757 47.0017ZM42.9262 57.9043C43.3212 57.6957 43.7162 57.4871 44.1361 57.2654C43.7141 56.5773 43.3562 55.9938 42.9366 55.2016C42.5963 54.5637 42.2559 53.9257 41.8527 53.073C41.4251 52.2247 41.0262 51.3598 40.5645 50.5312C39.2475 48.1679 36.9836 47.3661 35.0523 48.7024C34.2325 49.2696 33.6435 50.1832 32.9419 50.9477C32.8131 50.7565 32.6041 50.4463 32.3328 50.0435C31.7421 50.6601 31.219 51.2061 30.8304 51.6118C32.5453 54.9749 34.1744 58.1698 35.8519 61.4965C35.9367 61.4861 36.0216 61.4758 36.304 61.4C36.7865 61.1253 37.2689 60.8507 37.8621 60.5017C37.7977 60.4043 37.7333 60.307 37.5583 60.0379C36.7113 58.3843 35.7896 56.7642 35.0504 55.0622C34.7042 54.265 34.5325 53.2939 34.6005 52.4297C34.6908 51.2812 35.4723 50.4706 36.5994 50.239C37.7319 50.0062 38.3543 50.7584 38.8358 51.7035C39.4449 52.8988 40.1024 54.0686 40.7848 55.469C41.1534 56.2429 41.4868 57.0382 41.9176 57.7744C42.0153 57.9416 42.4508 57.9038 42.9262 57.9043ZM47.1138 54.7658C47.1138 54.7658 47.1632 54.8334 47.0961 54.937C47.0459 55.0933 46.9956 55.2496 46.8109 55.5376C45.5271 56.6143 45.7386 57.8095 47.479 58.8628C49.5957 59.6693 52.1872 58.9466 53.6491 57.1372C54.7393 55.7879 54.8369 54.3181 54.0845 52.5336C52.2934 49.0211 50.5023 45.5087 48.6195 41.8163C47.9963 42.3077 47.376 42.7967 46.5562 43.443C43.7642 42.8372 41.0163 45.7452 41.7178 48.9264C42.0847 50.5902 42.8445 52.0426 44.1353 53.3859C44.9213 54.285 45.8654 54.8072 47.1138 54.7658ZM66.3048 27.2761C66.2117 27.2962 66.1186 27.3163 65.8739 27.4343C65.5272 28.0204 64.4165 28.2055 65.006 29.2836C65.7233 30.5951 66.396 31.932 66.9684 33.3204C66.8487 33.3833 66.7291 33.4462 66.46 33.4404C64.7032 32.9135 63.1657 33.3703 62.2608 34.8022C61.2761 36.3605 61.3462 38.0188 62.0546 39.8369C62.1462 40.0118 62.2379 40.1866 62.3576 40.561C62.5308 40.842 62.7041 41.1231 62.888 41.5348C62.973 41.6283 63.058 41.7217 63.2131 41.9891C63.6163 42.424 64.0196 42.8589 64.5075 43.4431C66.9268 45.5104 69.9758 44.9669 71.4044 42.1904C71.6519 42.2707 71.8993 42.3511 72.3467 42.3686C72.819 42.1192 73.2914 41.8698 73.6469 41.6821C72.454 39.3428 71.3134 37.106 70.1196 34.6502C68.8784 32.2361 67.6372 29.8221 66.3048 27.2761ZM32.3339 63.3507C32.4183 63.3428 32.5027 63.3348 32.7908 63.254C33.3568 62.9551 33.9228 62.6563 34.3925 62.4083C33.0645 59.8039 31.8275 57.378 30.5337 54.7354C29.3884 52.4894 28.2431 50.2433 27.0804 47.9631C25.0966 49.0105 23.0687 49.9254 21.2092 51.1139C19.8023 52.0131 19.1594 53.5269 19.6174 55.261C20.0753 56.9946 21.1416 58.2257 22.9626 58.5341C24.3928 58.7764 25.5824 58.2317 26.443 57.0809C27.1898 56.0822 27.1999 54.937 26.6989 53.8058C26.3024 52.9103 25.553 52.6557 24.7952 53.1363C24.0262 53.624 23.9405 54.2721 24.3831 55.0743C24.5407 55.3599 24.6973 55.9353 24.58 56.0322C24.2852 56.2756 23.6876 56.5488 23.4727 56.4038C22.834 55.9729 22.1402 55.44 21.8055 54.7719C21.3983 53.9592 21.7963 53.0767 22.553 52.6051C23.6303 51.9337 24.7894 51.3983 26.0975 50.7076C27.1119 52.6969 28.0977 54.6301 29.1109 56.7647C30.1701 58.9158 31.2294 61.067 32.3339 63.3507ZM57.9914 36.7231C57.5946 37.1356 57.1978 37.548 56.8258 37.9348C57.1464 38.4047 57.4485 38.7608 57.6567 39.1668C59.0222 41.8295 60.3593 44.5075 61.7359 47.1642C61.8402 47.3653 62.179 47.4406 62.606 47.5178C63.0714 47.2721 63.5369 47.0263 63.9754 46.7948C63.4008 45.7839 62.914 44.9274 62.3608 43.8572C61.1255 41.4507 59.8902 39.0442 58.6193 36.5109C58.4614 36.5519 58.3034 36.5929 57.9914 36.7231ZM55.9809 51.012C56.4635 50.7362 56.946 50.4603 57.5375 50.1065C57.4695 50.0101 57.4016 49.9137 57.2297 49.6427C56.2219 47.5378 55.1647 45.4553 54.2309 43.3171C53.8626 42.4739 53.677 41.501 54.3216 40.5824C54.5393 40.6607 54.7327 40.8046 54.8954 40.7754C55.4279 40.6799 56.1444 40.6856 56.4207 40.3417C56.7047 39.9884 56.7618 39.1511 56.5366 38.745C56.3114 38.3389 55.619 38.0085 55.1225 37.9923C54.1463 37.9604 53.4567 38.5926 53.1175 39.5199C52.9887 39.872 53.0367 40.2926 53.0041 40.682C52.8885 40.6483 52.773 40.6145 52.6575 40.5807C52.4623 40.3036 52.2671 40.0265 52.006 39.6557C51.4189 40.2673 50.8955 40.8126 50.5067 41.2176C52.222 44.5816 53.8522 47.7784 55.5301 51.1059C55.6142 51.0957 55.6983 51.0854 55.9809 51.012ZM55.3245 35.5627C55.936 36.4423 56.6907 36.597 57.5111 35.9302C58.1267 35.4299 58.185 34.6701 57.6724 34.1512C57.3071 33.7815 56.573 33.4982 56.0958 33.6032C55.2639 33.7861 55.0378 34.5493 55.3245 35.5627ZM69.2778 46.8715L69.2729 46.82C69.2729 46.82 69.2386 46.852 69.2778 46.8715Z" fill="#EF05A0"/>
<path d="M50.7812 50.0296C51.1526 50.7189 51.4881 51.4316 51.9028 52.0928C52.8428 53.592 52.9039 55.0076 51.5841 56.4667C50.715 56.8847 49.9222 57.4723 49.1526 56.4689C49.0371 54.9951 48.0256 55.1393 47.1015 55.1313C47.1517 54.975 47.202 54.8188 47.3743 54.5703C48.57 54.2439 49.5792 53.9031 50.2045 52.7662C51.0075 51.1209 50.7461 50.4537 49.1661 49.7427C49.7287 49.8004 50.2549 49.915 50.7812 50.0296Z" fill="#F412A8"/>
<path d="M71.9551 38.1797C72.1893 37.3624 72.4407 37.8868 72.7392 38.3229C72.5314 38.3141 72.284 38.2338 71.9551 38.1797Z" fill="#FDC7EB"/>
<path d="M62.6881 35.7243C62.7985 35.837 62.9075 36.0255 62.9891 36.2693C62.87 36.1496 62.7784 35.9748 62.6881 35.7243Z" fill="#64264F"/>
<path d="M63.5146 37.4325C63.6072 37.4718 63.705 37.5764 63.7889 37.7296C63.69 37.6848 63.605 37.5913 63.5146 37.4325Z" fill="#64264F"/>
<path d="M59.2691 32.5373C59.1589 32.6107 59.0309 32.6206 58.8402 32.6138C58.9354 32.5559 59.0934 32.5149 59.2691 32.5373Z" fill="#FEDDF3"/>
<path d="M36.4597 57.3936C36.5072 57.3339 36.5762 57.3513 36.6905 57.4041C36.6536 57.4388 36.5688 57.4491 36.4597 57.3936Z" fill="#FED0EE"/>
<path d="M38.439 56.5018C38.367 56.4787 38.3504 56.4184 38.3175 56.2654C38.3655 56.27 38.43 56.3673 38.439 56.5018Z" fill="#FED0EE"/>
<path d="M32.9434 59.2474C32.9922 59.1879 33.0606 59.2066 33.1726 59.2636C33.1349 59.2979 33.0505 59.3058 32.9434 59.2474Z" fill="#FDC3E9"/>
<path d="M56.1385 47.0036C56.1851 46.9466 56.2532 46.9644 56.3668 47.015C56.3306 47.0485 56.2465 47.0587 56.1385 47.0036Z" fill="#FED6F0"/>
<path d="M58.1153 46.1085C58.0428 46.0869 58.0248 46.0264 57.9864 45.8731C58.0339 45.8767 58.1018 45.9731 58.1153 46.1085Z" fill="#FED6F0"/>
<path d="M66.9826 23.305C66.9444 23.3625 66.8606 23.3539 66.7173 23.3224C66.7509 23.2793 66.844 23.2592 66.9826 23.305Z" fill="#FDC7EB"/>
<path d="M69.8903 42.8247C69.8707 42.815 69.9049 42.783 69.9049 42.783C69.9049 42.783 69.9098 42.8345 69.8903 42.8247Z" fill="#010001"/>
<path d="M49.2464 49.9602C48.0422 50.5013 47.1322 51.1363 47.8732 52.7367C47.7688 52.8088 47.6645 52.881 47.5602 52.9531C46.8042 52.4597 46.0482 51.9663 45.216 51.4285C44.8814 50.8066 44.6482 50.2158 44.3596 49.6543C43.6596 48.2924 43.8458 46.6886 44.8234 45.8946C45.8543 45.0572 47.3046 45.0865 48.3957 46.3218C49.3676 47.4221 50.0222 48.8148 50.8391 50.1628C50.3352 50.1325 49.809 50.0179 49.2464 49.9602Z" fill="#F309A4"/>
<path d="M66.7992 32.9583C66.9189 32.8954 67.0385 32.8326 67.2911 32.8228C68.0641 34.0728 68.7041 35.2697 69.3632 36.5614C69.5569 37.1248 69.7313 37.5936 69.927 38.1492C69.8699 39.1894 69.7917 40.1426 69.6438 41.1491C68.2805 42.4769 66.8168 42.376 65.4611 40.8338C63.6306 38.2846 63.3397 36.3905 64.3034 35.3602C65.2222 35.5609 66.0072 35.9754 66.6638 35.8237C67.9134 35.535 67.9312 34.2556 66.7992 32.9583Z" fill="#F40DA6"/>
</g>
<defs>
<clipPath id="clip0_126_188">
<rect width="67.9579" height="34.6946" fill="white" transform="matrix(0.886931 -0.468284 0.45243 0.887254 11.9873 46.5246)"/>
</clipPath>
</defs>
</svg>
